# xmcd
#
# Track frame offsets: 
#        150
#        15507
#        32511
#        48500
#        71781
#        98229
#        114228
#        126351
#        147952
#        169287
#        183687
#        197283
#        210285
#        231885
#        248085
#        265569
#        279969
#        294930
#        310230
#        327954
#
# Disc length: 4678 seconds
#
# Revision: 0
# Processed by: cddbd v1.5.2PL0 Copyright (c) Steve Scherf et al.
# Submitted via: ExactAudioCopy v1.0b1
#
DISCID=17124414
DTITLE=Aci Krank Feat. Untergrund Soldaten - Kriegstape
DYEAR=2006
DGENRE=Hip-Hop
TTITLE0=Alles was ich bin
TTITLE1=Glaub an mich
TTITLE2=Das ist Schicksal
TTITLE3=Junge Männer, Kämpfer, Untergrund Soldaten
TTITLE4=Kriegskinder
TTITLE5=Kriegstape
TTITLE6=Ich geh den Weg
TTITLE7=Die Strasse hat uns geprägt
TTITLE8=Der Blick in die Geschichte
TTITLE9=Die Champions sind da
TTITLE10=Ich geb nen fick auf Bullen
TTITLE11=Das Leben auf der Strasse
TTITLE12=Zeit ist Geld
TTITLE13=Eine Schelle
TTITLE14=Pass gut auf was du tust
TTITLE15=Fick nicht mit uns
TTITLE16=Kampfansage
TTITLE17=Soldaten im Krieg
TTITLE18=Getosommer 2
TTITLE19=Bruder schau
EXTD=
EXTT0=
EXTT1=
EXTT2=
EXTT3=
EXTT4=
EXTT5=
EXTT6=
EXTT7=
EXTT8=
EXTT9=
EXTT10=
EXTT11=
EXTT12=
EXTT13=
EXTT14=
EXTT15=
EXTT16=
EXTT17=
EXTT18=
EXTT19=
PLAYORDER=
